<svg width="26" height="18" viewBox="0 0 26 18" fill="none" xmlns="http://www.w3.org/2000/svg">
<path d="M6.85365 15.5487C6.85365 16.3502 6.19853 16.9999 5.39023 16.9999C4.58194 16.9999 3.92682 16.3502 3.92682 15.5487C3.92682 14.7471 4.58194 14.0974 5.39023 14.0974C6.19853 14.0974 6.85365 14.7471 6.85365 15.5487Z" stroke="#080C0F" stroke-miterlimit="10" stroke-linecap="round" stroke-linejoin="round"/>
<path d="M9.7805 15.5487C9.7805 16.3502 9.12538 16.9999 8.31708 16.9999C7.50879 16.9999 6.85367 16.3502 6.85367 15.5487C6.85367 14.7471 7.50879 14.0974 8.31708 14.0974C9.12538 14.0974 9.7805 14.7471 9.7805 15.5487Z" stroke="#080C0F" stroke-miterlimit="10" stroke-linecap="round" stroke-linejoin="round"/>
<path d="M20.3171 15.5487C20.3171 16.3502 19.662 16.9999 18.8537 16.9999C18.0454 16.9999 17.3903 16.3502 17.3903 15.5487C17.3903 14.7471 18.0454 14.0974 18.8537 14.0974C19.662 14.0974 20.3171 14.7471 20.3171 15.5487Z" stroke="#080C0F" stroke-miterlimit="10" stroke-linecap="round" stroke-linejoin="round"/>
<path d="M12.8537 15.5486V2.00332C12.8537 1.46876 13.2903 1.03579 13.8293 1.03579H15.9268C18.3517 1.03579 20.3171 2.98487 20.3171 5.38965V6.52399C20.3171 8.30208 21.7585 9.7435 23.5366 9.7435V9.7435C24.3449 9.7435 25 10.3932 25 11.1948V14.5811C25 15.1157 24.5634 15.5486 24.0244 15.5486H20.3171" stroke="#080C0F" stroke-miterlimit="10" stroke-linecap="round" stroke-linejoin="round"/>
<path d="M3.92683 15.5486H1" stroke="#080C0F" stroke-miterlimit="10" stroke-linecap="round" stroke-linejoin="round"/>
<path d="M20.3171 9.74353H18.1037C16.9015 9.74353 15.9268 8.76889 15.9268 7.5666V7.5666C15.9268 6.36432 16.9015 5.38967 18.1037 5.38967H20.3171" stroke="#080C0F" stroke-miterlimit="10" stroke-linecap="round" stroke-linejoin="round"/>
<path d="M9.78049 5.38971H12.8537" stroke="#080C0F" stroke-miterlimit="10" stroke-linecap="round" stroke-linejoin="round"/>
<path d="M12.8537 5.38971H15.9268" stroke="#080C0F" stroke-miterlimit="10" stroke-linecap="round" stroke-linejoin="round"/>
<path d="M23.5366 12.6461H25" stroke="#080C0F" stroke-miterlimit="10" stroke-linecap="round" stroke-linejoin="round"/>
<path d="M10.2683 10.2273C10.2683 10.4944 10.0499 10.7111 9.78047 10.7111C9.51105 10.7111 9.29266 10.4944 9.29266 10.2273C9.29266 9.96016 9.51105 9.74354 9.78047 9.74354C10.0499 9.74354 10.2683 9.96016 10.2683 10.2273Z" fill="#080C0F"/>
<path d="M8.31708 1.03581V1.03581C9.25367 1.96463 9.78049 3.22906 9.78049 4.54812V8.05035" stroke="#080C0F" stroke-miterlimit="10" stroke-linecap="round" stroke-linejoin="round"/>
<path d="M9.78049 12.4042V12.4042C9.78049 14.1408 11.1883 15.5486 12.9249 15.5486H17.3902" stroke="#080C0F" stroke-miterlimit="10" stroke-linecap="round" stroke-linejoin="round"/>
</svg>
